<svg xmlns="http://www.w3.org/2000/svg" xmlns:xlink="http://www.w3.org/1999/xlink" xmlns:fi="http://pattern.flaticon.com/" x="0" y="0" width="700" height="350" viewBox="0 0 700 350"><rect x="0px" y="0px" width="100%" height="100%" opacity="1" fill="#fff9f7"/><defs><g transform="matrix(0.09018445567566122 -0.020364231946959993 0.020364231946959993 0.09018445567566122 155.69953596860898 290.12602272545246)" id="L1_0"><path d="m10 128.422h428.957v-72.578c0-10.583-8.682-19.237-19.265-19.237h-390.456c-10.583 0-19.236 8.654-19.236 19.237z" fill="#9966ff"/><path d="m101.925 299.708h337.032v-171.286h-428.957v250.277c0 10.583 8.653 19.265 19.236 19.265h72.689z" fill="#ffffff"/><path d="m101.925 475.393h400.075v-175.685h-63.043-337.032v98.255z" fill="#8690fa"/><g><path d="m502 289.708h-53.043v-233.864c0-16.121-13.128-29.237-29.265-29.237h-390.456c-16.121 0-29.236 13.116-29.236 29.237v322.854c0 16.137 13.115 29.265 29.236 29.265h62.689v67.43c0 5.523 4.477 10 10 10h45.027c5.523 0 10-4.477 10-10s-4.477-10-10-10h-35.027v-155.685h380.075v155.685h-255.137c-5.523 0-10 4.477-10 10s4.477 10 10 10h265.137c5.523 0 10-4.477 10-10v-175.685c0-5.522-4.477-10-10-10zm-472.764-243.101h390.456c5.108 0 9.265 4.144 9.265 9.237v62.578h-408.957v-62.578c0-5.094 4.144-9.237 9.236-9.237zm72.689 243.101c-5.523 0-10 4.477-10 10v88.255h-62.689c-5.093 0-9.236-4.156-9.236-9.265v-240.277h408.957v151.287z"/><path d="m339.343 92.514c5.523 0 10-4.477 10-10s-4.477-10-10-10h-.057c-5.523 0-9.972 4.477-9.972 10s4.506 10 10.029 10z"/><path d="m386.384 92.514c5.523 0 10-4.477 10-10s-4.477-10-10-10h-.028c-5.523 0-9.986 4.477-9.986 10s4.491 10 10.014 10z"/><path d="m292.302 92.514c5.523 0 10-4.477 10-10s-4.477-10-10-10h-.057c-5.523 0-9.971 4.477-9.971 10s4.505 10 10.028 10z"/><path d="m62.545 92.514h130.994c5.523 0 10-4.477 10-10s-4.477-10-10-10h-130.994c-5.523 0-10 4.477-10 10s4.477 10 10 10z"/><path d="m322.939 425.702 6.753-37.396 11.181 37.881c.033.111.067.221.104.331 1.596 4.788 6.037 7.987 11.071 7.987h.1c5.061-.042 9.483-3.316 11.004-8.146.027-.086.053-.173.078-.26l10.785-37.808 7.17 37.51c1.037 5.425 6.275 8.982 11.7 7.945s8.981-6.275 7.945-11.7l-13.76-71.982c-.007-.039-.015-.077-.022-.114-1.06-5.212-5.512-9.049-10.827-9.329-5.292-.277-10.118 3.055-11.714 8.11-.028.089-.055.179-.081.269l-12.523 43.902-12.984-43.99c-.033-.111-.067-.221-.104-.331-1.67-5.01-6.518-8.277-11.794-7.95-5.282.329-9.695 4.186-10.733 9.379-.012.061-.023.122-.035.183l-12.995 71.954c-.981 5.435 2.629 10.637 8.063 11.618 5.43.979 10.637-2.628 11.618-8.063z"/><path d="m432.545 340.609c-5.523 0-10 4.477-10 10v73.826c0 4.869 3.506 9.029 8.304 9.855.714.123 1.235.213 9.522.213 3.966 0 9.711-.021 18.105-.068 5.522-.031 9.975-4.534 9.943-10.057-.031-5.503-4.502-9.943-9.999-9.943-.019 0-.038 0-.058 0-4.823.027-10.852.052-15.818.06v-63.886c.001-5.523-4.476-10-9.999-10z"/><path d="m196.631 340.609c-5.523 0-10 4.477-10 10v25.665h-31.155v-25.665c0-5.523-4.477-10-10-10s-10 4.477-10 10v73.883c0 5.523 4.477 10 10 10s10-4.477 10-10v-28.218h31.155v28.218c0 5.523 4.477 10 10 10s10-4.477 10-10v-73.883c0-5.523-4.477-10-10-10z"/><path d="m257.263 434.492c5.523 0 10-4.477 10-10v-63.883h10.484c5.523 0 10-4.477 10-10s-4.477-10-10-10h-40.827c-5.523 0-10 4.477-10 10s4.477 10 10 10h10.343v63.883c0 5.523 4.477 10 10 10z"/><path d="m148.357 164.028c-5.391-1.2-10.733 2.2-11.933 7.591l-18.272 82.168c-1.199 5.391 2.2 10.733 7.591 11.933.731.163 1.461.24 2.18.24 4.583 0 8.716-3.171 9.752-7.831l18.272-82.168c1.199-5.392-2.199-10.734-7.59-11.933z"/><path d="m90.089 173.295c-4.253-3.523-10.558-2.932-14.08 1.322l-28.06 33.877c-3.065 3.7-3.065 9.057 0 12.758l28.06 33.877c1.978 2.388 4.831 3.622 7.707 3.622 2.247 0 4.508-.754 6.374-2.299 4.253-3.523 4.845-9.827 1.322-14.08l-22.776-27.499 22.776-27.498c3.523-4.253 2.931-10.557-1.323-14.08z"/><path d="m198.062 174.618c-3.523-4.254-9.828-4.846-14.08-1.322-4.253 3.523-4.845 9.827-1.322 14.08l22.776 27.498-22.776 27.499c-3.523 4.253-2.931 10.557 1.322 14.08 1.866 1.546 4.126 2.299 6.374 2.299 2.875 0 5.729-1.234 7.707-3.622l28.06-33.877c3.065-3.7 3.065-9.058 0-12.758z"/><path d="m315.312 201.438h77.966c5.523 0 10-4.477 10-10s-4.477-10-10-10h-77.966c-5.523 0-10 4.477-10 10s4.477 10 10 10z"/><path d="m258.681 201.438h16.598c5.523 0 10-4.477 10-10s-4.477-10-10-10h-16.598c-5.523 0-10 4.477-10 10s4.477 10 10 10z"/><path d="m336.647 232.708h-77.966c-5.523 0-10 4.477-10 10s4.477 10 10 10h77.966c5.523 0 10-4.477 10-10s-4.477-10-10-10z"/><path d="m393.278 232.708h-16.598c-5.523 0-10 4.477-10 10s4.477 10 10 10h16.598c5.523 0 10-4.477 10-10s-4.477-10-10-10z"/><path d="m191.893 465.393c-5.523 0-10 4.477-10 10s4.477 10 10 10h.057c5.523 0 9.971-4.477 9.971-10s-4.505-10-10.028-10z"/></g></g><g transform="matrix(0.10165567025681224 0.01694261175885265 -0.01694261175885265 0.10165567025681224 278.28647029302863 227.45819324490765)" id="L1_1"><path d="m10 120.12h456.823v-77.273c0-11.282-9.212-20.495-20.494-20.495h-415.835c-11.282 0-20.494 9.213-20.494 20.495z" fill="#9966ff"/><path d="m10 386.692c0 11.254 9.212 20.495 20.494 20.495h98.729v-104.628h337.6v-182.439h-456.823z" fill="#ffffff"/><path d="m129.223 407.187v82.46h372.777v-187.088h-35.177-337.6z" fill="#cfd2fc"/><g><path d="m502 292.56h-25.177v-249.713c0-16.815-13.68-30.495-30.494-30.495h-415.835c-16.814.001-30.494 13.68-30.494 30.495v343.845c0 16.815 13.68 30.495 30.494 30.495h88.729v72.46c0 5.523 4.477 10 10 10h44.985c5.523 0 10-4.477 10-10s-4.477-10-10-10h-34.985v-167.087h352.777v167.088h-227.992c-5.523 0-10 4.477-10 10s4.477 10 10 10h237.992c5.523 0 10-4.477 10-10v-187.088c0-5.523-4.477-10-10-10zm-471.506-260.207h415.834c5.787 0 10.494 4.708 10.494 10.495v67.273h-436.822v-67.274c0-5.786 4.708-10.494 10.494-10.494zm98.729 260.207c-5.523 0-10 4.477-10 10v94.627h-88.729c-5.787 0-10.494-4.708-10.494-10.495v-256.572h436.823v162.44z"/><path d="m360.752 81.25c5.523 0 10-4.477 10-10s-4.477-10-10-10h-.057c-5.523 0-9.972 4.477-9.972 10s4.506 10 10.029 10z"/><path d="m410.868 81.25c5.523 0 10-4.477 10-10s-4.477-10-10-10h-.057c-5.523 0-9.972 4.477-9.972 10s4.506 10 10.029 10z"/><path d="m310.637 81.25c5.523 0 10-4.477 10-10s-4.477-10-10-10h-.057c-5.523 0-9.972 4.477-9.972 10s4.506 10 10.029 10z"/><path d="m65.955 81.25h139.519c5.523 0 10-4.477 10-10s-4.477-10-10-10h-139.519c-5.523 0-10 4.477-10 10s4.477 10 10 10z"/><path d="m157.187 158.689c-5.391-1.2-10.733 2.202-11.931 7.592l-19.445 87.506c-1.198 5.392 2.201 10.733 7.592 11.931.731.163 1.46.24 2.179.24 4.584 0 8.717-3.172 9.752-7.833l19.445-87.506c1.199-5.39-2.201-10.732-7.592-11.93z"/><path d="m94.899 168.434c-4.252-3.523-10.556-2.933-14.081 1.319l-29.905 36.085c-3.067 3.701-3.067 9.061 0 12.762l29.905 36.085c1.978 2.386 4.831 3.62 7.705 3.62 2.248 0 4.509-.754 6.375-2.301 4.252-3.524 4.843-9.828 1.319-14.081l-24.617-29.704 24.617-29.705c3.525-4.252 2.934-10.556-1.318-14.08z"/><path d="m209.803 169.756c-3.523-4.253-9.826-4.847-14.08-1.325s-4.847 9.826-1.325 14.08l24.597 29.708-24.597 29.708c-3.522 4.254-2.929 10.558 1.325 14.08 1.866 1.545 4.125 2.298 6.372 2.298 2.875 0 5.73-1.235 7.708-3.623l29.877-36.085c3.063-3.7 3.063-9.055 0-12.755z"/><path d="m274.864 197.245h17.66c5.523 0 10-4.477 10-10s-4.477-10-10-10h-17.66c-5.523 0-10 4.477-10 10s4.477 10 10 10z"/><path d="m335.156 197.245h83.054c5.523 0 10-4.477 10-10s-4.477-10-10-10h-83.054c-5.523 0-10 4.477-10 10s4.477 10 10 10z"/><path d="m357.889 231.841h-83.025c-5.523 0-10 4.477-10 10s4.477 10 10 10h83.025c5.523 0 10-4.477 10-10s-4.477-10-10-10z"/><path d="m418.209 231.841h-17.688c-5.523 0-10 4.477-10 10s4.477 10 10 10h17.688c5.523 0 10-4.477 10-10s-4.477-10-10-10z"/><path d="m227.64 366.758c5.904 0 11.568 1.726 16.38 4.992 4.57 3.104 10.789 1.912 13.89-2.658 3.102-4.57 1.912-10.789-2.658-13.89-8.139-5.524-17.687-8.444-27.612-8.444-27.208 0-49.344 22.136-49.344 49.345 0 27.225 22.136 49.374 49.344 49.374 10.845 0 20.608-3.577 28.288-10.39 1.46-1.314 2.847-2.737 4.122-4.231 3.585-4.201 3.085-10.513-1.116-14.098-4.202-3.585-10.513-3.086-14.098 1.116-.707.828-1.475 1.617-2.233 2.299-3.967 3.52-9.001 5.304-14.962 5.304-16.181 0-29.344-13.177-29.344-29.374-.001-16.181 13.162-29.345 29.343-29.345z"/><path d="m323.307 425.477c-7.786 0-15.271-3.136-20.023-8.388-3.706-4.096-10.03-4.411-14.125-.707-4.096 3.706-4.412 10.029-.707 14.125 8.481 9.374 21.511 14.97 34.854 14.97 16.659 0 30.65-10.643 33.268-25.307 1.972-11.044-3.028-25.467-22.971-32.824-9.634-3.559-18.603-7.411-21.41-8.634-2.063-1.682-1.99-4.006-1.85-4.978.196-1.354 1.188-4.665 6.156-6.155 10.991-3.313 21.196 4.724 21.492 4.96 4.23 3.503 10.5 2.938 14.036-1.274 3.55-4.23 3-10.538-1.23-14.089-.745-.626-18.505-15.252-40.058-8.75-10.923 3.277-18.659 11.876-20.189 22.441-1.438 9.933 2.858 19.497 11.212 24.958.45.294.923.552 1.415.771.455.202 11.289 5 23.5 9.511 3.411 1.258 11.234 4.805 10.209 10.546-.774 4.338-6.065 8.824-13.579 8.824z"/><path d="m419.23 425.477c-7.763 0-15.255-3.142-20.04-8.405-3.715-4.087-10.04-4.388-14.126-.673-4.087 3.715-4.388 10.04-.673 14.126 8.639 9.502 21.336 14.952 34.838 14.952 16.667 0 30.664-10.647 33.281-25.316 1.97-11.042-3.035-25.462-22.984-32.814-9.634-3.559-18.602-7.411-21.41-8.634-2.054-1.676-1.981-3.997-1.841-4.967.196-1.357 1.187-4.676 6.142-6.165 11.012-3.317 21.223 4.718 21.525 4.959 4.229 3.503 10.5 2.938 14.036-1.274 3.55-4.23 3-10.538-1.23-14.089-.745-.625-18.505-15.246-40.091-8.749-10.917 3.281-18.648 11.886-20.176 22.457-1.435 9.928 2.858 19.485 11.204 24.942.45.294.924.552 1.416.771.455.202 11.289 5 23.503 9.513 3.413 1.258 11.242 4.803 10.218 10.538-.775 4.339-6.07 8.828-13.592 8.828z"/><path d="m219.108 479.647c-5.523 0-10 4.477-10 10s4.477 10 10 10h.057c5.523 0 9.972-4.477 9.972-10s-4.506-10-10.029-10z"/></g></g><g transform="matrix(0.10367920994758606 0 0 0.10367920994758606 254.4410235966751 321.4581224641473)" id="L1_2"><g><path d="m453.31 461.125c0 24.508-19.907 44.375-44.464 44.375h-305.692c-24.557 0-44.464-19.867-44.464-44.375v-408.25c0-24.508 19.907-44.375 44.464-44.375h190.303c8.857 0 17.35 3.516 23.606 9.773l126.505 126.521c6.239 6.239 9.742 14.694 9.742 23.508z" fill="#f9f8f9"/><path d="m133.15 505.5h-30c-24.55 0-44.46-19.87-44.46-44.38v-408.24c0-24.51 19.91-44.38 44.46-44.38h30c-24.55 0-44.46 19.87-44.46 44.38v408.24c0 24.51 19.91 44.38 44.46 44.38z" fill="#e3e0e4"/><path d="m453.31 168.3v16.24h-115.96c-33.12 0-60.06-26.95-60.06-60.07v-115.97h16.17c8.85 0 17.35 3.52 23.6 9.77l126.51 126.52c6.24 6.24 9.74 14.7 9.74 23.51z" fill="#e3e0e4"/><path d="m450.32 154.54h-112.97c-16.6 0-30.06-13.46-30.06-30.07v-112.96c3.61 1.63 6.92 3.91 9.77 6.76l126.51 126.52c2.85 2.85 5.12 6.15 6.75 9.75z" fill="#cfd2fc"/><path d="m435 439.5h-358c-22.091 0-40-17.909-40-40v-146c0-22.091 17.909-40 40-40h358c22.091 0 40 17.909 40 40v146c0 22.091-17.909 40-40 40z" fill="#cfd2fc"/><path d="m102 439.5h-25c-22.09 0-40-17.91-40-40v-146c0-22.09 17.91-40 40-40h25c-22.09 0-40 17.91-40 40v146c0 22.09 17.91 40 40 40z" fill="#77d192"/></g><g><path d="m460.811 212.656v-45.354c0-10.879-4.24-21.111-11.938-28.811l-126.506-126.52c-7.718-7.72-17.985-11.971-28.91-11.971h-190.303c-28.653 0-51.965 23.271-51.965 51.875v32.649c0 4.143 3.357 7.5 7.5 7.5s7.5-3.357 7.5-7.5v-32.649c0-20.333 16.582-36.875 36.965-36.875h190.303c2.165 0 4.288.264 6.334.775v107.696c0 20.714 16.85 37.566 37.561 37.566h17.681c4.143 0 7.5-3.357 7.5-7.5s-3.357-7.5-7.5-7.5h-17.681c-12.439 0-22.561-10.123-22.561-22.566v-97.863l120.415 120.429h-45.173c-4.143 0-7.5 3.357-7.5 7.5s3.357 7.5 7.5 7.5h55.013c.505 2.025.765 4.125.765 6.265v38.954c-3.476-.812-7.092-1.256-10.811-1.256h-358c-3.719 0-7.335.444-10.811 1.256v-86.731c0-4.143-3.357-7.5-7.5-7.5s-7.5 3.357-7.5 7.5v93.131c-13.04 8.477-21.689 23.165-21.689 39.844v146c0 16.679 8.649 31.367 21.689 39.844v21.781c0 28.604 23.312 51.875 51.965 51.875h278.824c4.143 0 7.5-3.357 7.5-7.5s-3.357-7.5-7.5-7.5h-278.824c-20.383 0-36.965-16.542-36.965-36.875v-15.381c3.476.813 7.092 1.256 10.811 1.256h27.224c4.143 0 7.5-3.357 7.5-7.5s-3.357-7.5-7.5-7.5h-27.224c-17.921 0-32.5-14.579-32.5-32.5v-146c0-17.921 14.579-32.5 32.5-32.5h358c17.921 0 32.5 14.579 32.5 32.5v146c0 17.921-14.579 32.5-32.5 32.5h-295.776c-4.143 0-7.5 3.357-7.5 7.5s3.357 7.5 7.5 7.5h295.776c3.719 0 7.335-.443 10.811-1.256v15.381c0 17.845-12.75 33.104-30.317 36.282-4.076.737-6.782 4.64-6.045 8.715.655 3.625 3.813 6.166 7.371 6.166.443 0 .893-.039 1.344-.121 24.712-4.471 42.647-25.938 42.647-51.042v-21.781c13.041-8.477 21.689-23.165 21.689-39.844v-146c0-16.679-8.649-31.367-21.689-39.844z"/><path d="m327.937 389.505c3.864 1.476 8.203-.468 9.678-4.34l8.82-23.159h58.422l8.732 23.139c1.133 3.003 3.987 4.854 7.018 4.854.88 0 1.775-.156 2.647-.485 3.875-1.462 5.831-5.789 4.368-9.665l-42.415-112.392c-.025-.068-.053-.137-.08-.205-1.562-3.796-5.222-6.247-9.326-6.247-.003 0-.006 0-.01 0-4.107.004-7.768 2.463-9.323 6.266-.023.057-.046.113-.067.171l-42.804 112.387c-1.475 3.868.468 8.201 4.34 9.676zm47.842-104.547 23.416 62.048h-47.048z"/><path d="m214.072 267.251c-1.562-3.796-5.222-6.247-9.326-6.247-.003 0-.006 0-.01 0-4.107.004-7.768 2.463-9.323 6.266-.023.057-.046.113-.067.171l-42.804 112.387c-1.475 3.87.469 8.203 4.34 9.678 3.866 1.476 8.203-.468 9.678-4.34l8.82-23.159h58.422l8.732 23.139c1.133 3.003 3.987 4.854 7.018 4.854.88 0 1.775-.156 2.647-.485 3.875-1.462 5.831-5.789 4.368-9.665l-42.415-112.392c-.025-.07-.052-.139-.08-.207zm-32.979 79.755 23.632-62.048 23.416 62.048z"/><path d="m139.051 268.504c0-4.143-3.357-7.5-7.5-7.5s-7.5 3.357-7.5 7.5v91.107c0 5.755-3.015 11.003-7.867 13.696-9.556 5.306-19.036-3.774-19.497-4.225-2.923-2.911-7.649-2.915-10.578-.006-2.938 2.92-2.953 7.669-.034 10.606.545.549 10.505 10.371 23.811 10.371 4.25 0 8.845-1.003 13.579-3.632 9.614-5.337 15.587-15.61 15.587-26.812v-91.105z"/><path d="m332.97 261.596c-3.927-1.309-8.176.821-9.481 4.753l-32.642 98.254-34.211-98.558c-1.358-3.914-5.634-5.99-9.544-4.626-3.913 1.358-5.984 5.631-4.626 9.544l38.992 112.332c1.426 4.016 5.234 6.702 9.491 6.702.022 0 .045 0 .068-.001 4.284-.028 8.089-2.773 9.484-6.88l37.221-112.039c1.307-3.931-.821-8.176-4.752-9.481z"/></g></g><g transform="matrix(0.11418430165774579 0.017127645092773595 -0.017127645092773595 0.11418430165774579 41.0677581350756 274.8731158278066)" id="L1_3"><path d="m466.578125 3.5c-2.027344-2.21875-4.886719-3.5-7.914063-3.5h-448c-3.03125 0-5.890624 1.28125-7.917968 3.5-2.023438 2.261719-3.007813 5.226562-2.6875002 8.234375l42.6679682 426.664063c.425782 4.183593 3.242188 7.722656 7.230469 9.066406l192 64c1.109375.34375 2.21875.535156 3.371094.535156 1.28125 0 2.539063-.234375 3.753906-.683594l170.667969-64c3.796875-1.40625 6.464844-4.882812 6.847656-8.917968l42.667969-426.664063c.320313-3.007813-.664063-5.972656-2.6875-8.234375zm0 0" fill="#aa99ff"/><path d="m245.328125 512c-1.152344 0-2.261719-.191406-3.371094-.535156l-192-64c-3.988281-1.320313-6.804687-4.882813-7.230469-9.066406l-42.6679682-426.664063c-.3203128-3.007813.6640622-5.972656 2.6875002-8.234375 2.027344-2.21875 4.886718-3.5 7.917968-3.5h448c3.027344 0 5.886719 1.28125 7.914063 3.5 2.023437 2.238281 3.007813 5.226562 2.6875 8.234375l-42.667969 426.664063c-.40625 4.035156-3.070312 7.511718-6.847656 8.917968l-170.667969 64c-1.214843.449219-2.472656.683594-3.753906.683594zm-182.078125-82.601562 181.867188 60.628906 160.914062-60.351563 40.832031-408.34375h-424.402343zm0 0"/><path d="m266.664062 394.667969c-4.460937 0-8.621093-2.839844-10.136718-7.296875-1.855469-5.589844 1.175781-11.628906 6.742187-13.503906l58.007813-19.328126 17.941406-98.539062h-72.554688c-5.890624 0-10.667968-4.777344-10.667968-10.667969v-128c0-5.886719 4.777344-10.664062 10.667968-10.664062h106.664063c3.285156 0 6.402344 1.511719 8.425781 4.09375 2.027344 2.582031 2.730469 5.953125 1.941406 9.152343l-10.664062 42.667969c-1.429688 5.714844-7.148438 9.128907-12.929688 7.765625-5.738281-1.429687-9.195312-7.234375-7.765624-12.929687l7.316406-29.417969h-82.324219v106.667969h74.667969c3.15625 0 6.164062 1.386719 8.191406 3.839843 2.027344 2.410157 2.878906 5.628907 2.304688 8.746094l-21.335938 117.332032c-.703125 3.839843-3.433594 6.976562-7.125 8.214843l-64 21.332031c-1.128906.363282-2.238281.535157-3.367188.535157zm0 0"/><path d="m223.996094 394.667969c-.980469 0-1.964844-.128907-2.945313-.429688l-74.664062-21.332031c-3.84375-1.085938-6.722657-4.246094-7.53125-8.171875l-10.667969-53.332031c-1.171875-5.78125 2.582031-11.390625 8.382812-12.542969 5.484376-1.214844 11.371094 2.558594 12.546876 8.382813l9.386718 46.933593 54.824219 15.679688v-241.855469h-117.332031c-5.886719 0-10.667969-4.777344-10.667969-10.667969 0-5.886719 4.78125-10.664062 10.667969-10.664062h128c5.886718 0 10.667968 4.777343 10.667968 10.664062v266.667969c0 3.347656-1.558593 6.507812-4.246093 8.511719-1.878907 1.429687-4.140625 2.15625-6.421875 2.15625zm0 0"/></g><g transform="matrix(0.11969397217035294 0 0 0.11969397217035294 95.43855023384094 4.378394901752472)" id="L1_4"><path d="m392 488h-272a48 48 0 0 1 -48-48v-368a48 48 0 0 1 48-48h224l96 96v320a48 48 0 0 1 -48 48z" fill="#8690fa"/><path d="m72 360h368a0 0 0 0 1 0 0v80a48 48 0 0 1 -48 48h-272a48 48 0 0 1 -48-48v-80a0 0 0 0 1 0 0z" fill="#cfd2fc"/><path d="m440 120h-48a48 48 0 0 1 -48-48v-48z" fill="#cfd2fc"/><path d="m349.657 18.343a8 8 0 0 0 -5.657-2.343h-224a56.063 56.063 0 0 0 -56 56v368a56.063 56.063 0 0 0 56 56h272a56.063 56.063 0 0 0 56-56v-320a8 8 0 0 0 -2.343-5.657zm2.343 24.97 68.687 68.687h-28.687a40.045 40.045 0 0 1 -40-40zm-232-11.313h216v40a56.063 56.063 0 0 0 56 56h40v224h-352v-280a40.045 40.045 0 0 1 40-40zm272 448h-272a40.045 40.045 0 0 1 -40-40v-72h352v72a40.045 40.045 0 0 1 -40 40z"/><path d="m200 400a10.689 10.689 0 0 1 4.589 1.058 8 8 0 0 0 6.822-14.473 26.586 26.586 0 0 0 -11.411-2.585c-17.645 0-32 17.944-32 40s14.355 40 32 40a26.587 26.587 0 0 0 11.412-2.585 8 8 0 0 0 -6.824-14.473 10.678 10.678 0 0 1 -4.588 1.058c-8.673 0-16-10.99-16-24s7.327-24 16-24z"/><path d="m272 416h-8v-8a8 8 0 0 0 -16 0v8h-8a8 8 0 0 0 0 16h8v8a8 8 0 0 0 16 0v-8h8a8 8 0 0 0 0-16z"/><path d="m336 416h-8v-8a8 8 0 0 0 -16 0v8h-8a8 8 0 0 0 0 16h8v8a8 8 0 0 0 16 0v-8h8a8 8 0 0 0 0-16z"/><path d="m240 144a8 8 0 0 0 8-8v-16a8 8 0 0 0 -16 0v16a8 8 0 0 0 8 8z"/><path d="m208 176a8 8 0 0 0 8-8v-48a8 8 0 0 0 -16 0v48a8 8 0 0 0 8 8z"/><path d="m176 304a8 8 0 0 0 8-8v-48a8 8 0 0 0 -16 0v48a8 8 0 0 0 8 8z"/><path d="m336 304a8 8 0 0 0 8-8v-80a8 8 0 0 0 -16 0v80a8 8 0 0 0 8 8z"/><path d="m176 192a8 8 0 0 0 8-8v-16a8 8 0 0 0 -16 0v16a8 8 0 0 0 8 8z"/><path d="m208 272a8 8 0 0 0 8-8v-16a8 8 0 0 0 -16 0v16a8 8 0 0 0 8 8z"/><circle cx="208" cy="296" r="8"/><circle cx="176" cy="216" r="8"/><circle cx="240" cy="168" r="8"/><path d="m240 256a8 8 0 0 0 8-8v-48a8 8 0 0 0 -16 0v48a8 8 0 0 0 8 8z"/><path d="m208 224a8 8 0 0 0 8-8v-16a8 8 0 0 0 -16 0v16a8 8 0 0 0 8 8z"/><circle cx="336" cy="184" r="8"/><path d="m272 304a8 8 0 0 0 8-8v-48a8 8 0 0 0 -16 0v48a8 8 0 0 0 8 8z"/><path d="m272 176a8 8 0 0 0 8-8v-16a8 8 0 0 0 -16 0v16a8 8 0 0 0 8 8z"/><circle cx="272" cy="120" r="8"/><path d="m272 224a8 8 0 0 0 8-8v-16a8 8 0 0 0 -16 0v16a8 8 0 0 0 8 8z"/><path d="m176 144a8 8 0 0 0 8-8v-16a8 8 0 0 0 -16 0v16a8 8 0 0 0 8 8z"/><path d="m304 208a8 8 0 0 0 8-8v-80a8 8 0 0 0 -16 0v80a8 8 0 0 0 8 8z"/><circle cx="304" cy="232" r="8"/><path d="m304 304a8 8 0 0 0 8-8v-32a8 8 0 0 0 -16 0v32a8 8 0 0 0 8 8z"/><path d="m240 304a8 8 0 0 0 8-8v-16a8 8 0 0 0 -16 0v16a8 8 0 0 0 8 8z"/><path d="m336 160a8 8 0 0 0 8-8v-16a8 8 0 0 0 -16 0v16a8 8 0 0 0 8 8z"/></g><g transform="matrix(0.9375 0 0 0.9375 -21 28)" id="L1_5"><path d="m43 15h18v38h-18z" fill="#9966ff"/><circle cx="52" cy="43" r="2" fill="#711018"/><path d="m47 19h10v8h-10z" fill="#cde2dd"/><path d="m49 30h2v2h-2z" fill="#ffd884"/><path d="m53 30h2v2h-2z" fill="#ffd884"/><path d="m46 53 3-4h6l3 4z" fill="#7c9faf"/><path d="m51 41v-30h-48v30h20v8h-5v4h18v-4h-5v-8z" fill="#7c9faf"/><path d="m3 11h48v26h-48z" fill="#8690fa"/><path d="m3 11h3v30h-3z" fill="#25909e"/><g fill="#ffffff"><path d="m18 20a2.8 2.8 0 0 1 2.343 1.515l1.715-1.03a4.81 4.81 0 0 0 -4.058-2.485c-2.757 0-5 2.691-5 6s2.243 6 5 6a4.81 4.81 0 0 0 4.058-2.485l-1.715-1.03a2.8 2.8 0 0 1 -2.343 1.515c-1.654 0-3-1.794-3-4s1.346-4 3-4z"/><path d="m28 21h-2v2h-2v2h2v2h2v-2h2v-2h-2z"/><path d="m38 23h-2v-2h-2v2h-2v2h2v2h2v-2h2z"/><path d="m33 49h3v4h-3z"/><path d="m28 41h3v8h-3z"/><path d="m48 11h3v30h-3z"/></g><path d="m61 14h-9v-3a1 1 0 0 0 -1-1h-48a1 1 0 0 0 -1 1v30a1 1 0 0 0 1 1h19v6h-4a1 1 0 0 0 -1 1v4a1 1 0 0 0 1 1h18a1 1 0 0 0 1-1v-4a1 1 0 0 0 -1-1h-4v-6h10v11a1 1 0 0 0 1 1h18a1 1 0 0 0 1-1v-38a1 1 0 0 0 -1-1zm-5 8h-4v-1.908h4zm0 2v2h-4v-2zm-4 18a1 1 0 1 1 -1 1 1 1 0 0 1 1-1zm-2-30v24h-46v-24zm-46 26h46v2h-46zm31 14h-16v-2h16zm-5-4h-6v-6h6zm18 4 1.5-2h5l1.5 2zm12 0h-1.5l-2.7-3.6a1 1 0 0 0 -.8-.4h-6a1 1 0 0 0 -.8.4l-2.7 3.6h-1.5v-10h5.184a2.966 2.966 0 0 0 -.184 1 3 3 0 1 0 3-3v-12h5a1 1 0 0 0 1-1v-7.908a1 1 0 0 0 -1-1h-5v-2.092h8z"/><path d="m53 30h2v2h-2z"/><path d="m18 30a4.81 4.81 0 0 0 4.058-2.485l-1.715-1.03a2.8 2.8 0 0 1 -2.343 1.515c-1.654 0-3-1.794-3-4s1.346-4 3-4a2.8 2.8 0 0 1 2.343 1.515l1.715-1.03a4.81 4.81 0 0 0 -4.058-2.485c-2.757 0-5 2.691-5 6s2.243 6 5 6z"/><path d="m26 27h2v-2h2v-2h-2v-2h-2v2h-2v2h2z"/><path d="m34 27h2v-2h2v-2h-2v-2h-2v2h-2v2h2z"/></g><g transform="matrix(0.09076854556497455 0.020496123212419625 -0.020496123212419625 0.09076854556497455 198.01025987774594 35.516244792987095)" id="L1_6"><g><path d="m512 145.945v282.33c0 29.66-24.13 53.79-53.79 53.79h-404.42c-29.66 0-53.79-24.13-53.79-53.79v-282.33l39.25-23.37h444.02z" fill="#574d8c"/><path d="m512 145.945v282.33c0 29.66-24.13 53.79-53.79 53.79h-202.21v-359.49h227.27z" fill="#3e3373"/><path d="m278.224 56.469-22.224-26.534h-202.21c-29.66 0-53.79 24.13-53.79 53.79v62.22h256l22.224-25.755z" fill="#aa99ff"/><path d="m512 83.725v62.22h-256v-116.01h202.21c29.66 0 53.79 24.13 53.79 53.79z" fill="#9966ff"/><circle cx="447" cy="87" r="15" fill="#ff4d88"/><circle cx="387" cy="87" r="15" fill="#ffd480"/></g><path d="m256 356.608c-25.2 0-45.7-20.5-45.7-45.7s20.5-45.7 45.7-45.7l14.903-11.815-14.903-18.186c-36.61 0-67.22 26.12-74.2 60.7h-106.8c-8.28 0-15 6.72-15 15s6.72 15 15 15h106.8c6.98 34.58 37.59 60.7 74.2 60.7l13.979-18.188z" fill="#e4ebf2"/><path d="m452 310.908c0 8.28-6.72 15-15 15h-106.8c-6.98 34.58-37.59 60.7-74.2 60.7v-30c25.2 0 45.7-20.5 45.7-45.7s-20.5-45.7-45.7-45.7v-30c36.61 0 67.22 26.12 74.2 60.7h106.8c8.28 0 15 6.719 15 15z" fill="#ccd6e7"/></g><g transform="matrix(0.10477496683597565 0 0 0.10477496683597565 163.78040742874146 193.07830822467804)" id="L1_7"><path d="M392,488H120a48,48,0,0,1-48-48V72a48,48,0,0,1,48-48H344l96,96V440A48,48,0,0,1,392,488Z" fill="#8690fa"/><path d="M72,360H440a0,0,0,0,1,0,0v80a48,48,0,0,1-48,48H120a48,48,0,0,1-48-48V360A0,0,0,0,1,72,360Z" fill="#cfd2fc"/><path d="M440,120H392a48,48,0,0,1-48-48V24Z" fill="#cfd2fc"/><path d="M184,136V280c0,8.836,32.235,16,72,16s72-7.164,72-16V136Z" fill="#ffffff"/><ellipse cx="256px" cy="136px" rx="72px" ry="16px" fill="#5153ff"/><path d="M349.657,18.343A8,8,0,0,0,344,16H120A56.064,56.064,0,0,0,64,72V440a56.064,56.064,0,0,0,56,56H392a56.063,56.063,0,0,0,56-56V120a8,8,0,0,0-2.343-5.657ZM352,43.313,420.687,112H392a40.045,40.045,0,0,1-40-40ZM120,32H336V72a56.063,56.063,0,0,0,56,56h40V352H80V72A40.045,40.045,0,0,1,120,32ZM392,480H120a40.045,40.045,0,0,1-40-40V368H432v72A40.045,40.045,0,0,1,392,480Z"/><path d="M184,400h16a8,8,0,0,0,0-16H184a24,24,0,0,0,0,48,8,8,0,0,1,0,16H168a8,8,0,0,0,0,16h16a24,24,0,0,0,0-48,8,8,0,0,1,0-16Z"/><path d="M344,448H320V392a8,8,0,0,0-16,0v64a8,8,0,0,0,8,8h32a8,8,0,0,0,0-16Z"/><path d="M282.214,446.9A46.906,46.906,0,0,0,288,424c0-22.056-14.355-40-32-40s-32,17.944-32,40,14.355,40,32,40a27.027,27.027,0,0,0,15.6-5.09l2.747,2.747a8,8,0,0,0,11.314-11.314ZM256,448c-8.673,0-16-10.991-16-24s7.327-24,16-24,16,10.991,16,24a33.122,33.122,0,0,1-1.807,10.879l-8.536-8.536a8,8,0,0,0-11.314,11.314l9.58,9.58A10.644,10.644,0,0,1,256,448Z"/><path d="M203.353,299.123C217.505,302.268,236.2,304,256,304s38.5-1.732,52.647-4.877C320.39,296.514,336,291.692,336,280V136c0-11.692-15.61-16.514-27.353-19.123C294.5,113.732,275.8,112,256,112s-38.5,1.732-52.647,4.877C191.611,119.486,176,124.308,176,136V280C176,291.692,191.611,296.514,203.353,299.123ZM256,288c-36.744,0-59.127-6.054-64-9.622V247.955a95.079,95.079,0,0,0,11.353,3.168C217.505,254.268,236.2,256,256,256s38.5-1.732,52.647-4.877A95.079,95.079,0,0,0,320,247.955v30.423C315.127,281.946,292.743,288,256,288Zm-64-88.045a95.079,95.079,0,0,0,11.353,3.168C217.505,206.268,236.2,208,256,208s38.5-1.732,52.647-4.877A95.079,95.079,0,0,0,320,199.955v30.416c-4.847,3.566-27.226,9.629-64,9.629s-59.153-6.063-64-9.629Zm0-48a95.079,95.079,0,0,0,11.353,3.168C217.505,158.268,236.2,160,256,160s38.5-1.732,52.647-4.877A95.079,95.079,0,0,0,320,151.955v30.416c-4.847,3.566-27.226,9.629-64,9.629s-59.153-6.063-64-9.629ZM256,128c31.6,0,52.575,4.478,60.932,8-8.357,3.522-29.335,8-60.932,8s-52.576-4.478-60.931-8C203.424,132.478,224.4,128,256,128Z"/></g><g transform="matrix(0.46875 0 0 0.46875 57.999999356269825 91.00000027179715)" id="L1_8"><path d="M119.37,23.414H61.328a5.324,5.324,0,0,1-4.377-2.292L54.37,17.4a7.46,7.46,0,0,0-6.133-3.213H12.565a5,5,0,0,0-5,5v93.829a5,5,0,0,0,5,5H119.37a5,5,0,0,0,5-5v-84.6A5,5,0,0,0,119.37,23.414Z" fill="#e6e7e8"/><path d="M4.63,33H119.3a0,0,0,0,1,0,0v75.687a4,4,0,0,1-4,4H8.63a4,4,0,0,1-4-4V33A0,0,0,0,1,4.63,33Z" fill="#f9f8f9"/><path d="M55.03,71.915H68.905a7.876,7.876,0,0,0,7.876-7.876V50.125a7.876,7.876,0,0,0-7.876-7.875H55.03a7.876,7.876,0,0,0-7.876,7.875v7.53H39.625a7.876,7.876,0,0,0-7.876,7.875V79.406a7.876,7.876,0,0,0,7.876,7.876h7.529V79.79A7.876,7.876,0,0,1,55.03,71.915Z" fill="#9966ff"/><path d="M84.31,57.655H76.781v6.384a7.876,7.876,0,0,1-7.876,7.876H55.03a7.876,7.876,0,0,0-7.876,7.875V94.811a7.876,7.876,0,0,0,7.876,7.876H68.905a7.876,7.876,0,0,0,7.876-7.876V87.282H84.31a7.876,7.876,0,0,0,7.876-7.876V65.53A7.876,7.876,0,0,0,84.31,57.655Z" fill="#aa99ff"/><circle cx="53" cy="50" r="2" fill="#ffffff"/><circle cx="70" cy="93" r="2" fill="#ffffff"/><path d="M115.305,109.687H8.63a4,4,0,0,1-4-4v3a4,4,0,0,0,4,4H115.305a4,4,0,0,0,4-4v-3A4,4,0,0,1,115.305,109.687Z" fill="#ffffff"/><path d="M52.073,17.466,49.5,13.741a6.393,6.393,0,0,0-5.255-2.753H8.63a4,4,0,0,0-4,4V33H119.305V24.219a4,4,0,0,0-4-4H57.328A6.393,6.393,0,0,1,52.073,17.466Z" fill="#cfd2fc"/><path d="M84.31,56.655H77.781V50.126a8.886,8.886,0,0,0-8.876-8.876H55.03a8.886,8.886,0,0,0-8.876,8.876v6.529H39.625a8.886,8.886,0,0,0-8.876,8.875V79.406a8.886,8.886,0,0,0,8.876,8.875h6.529v6.53a8.886,8.886,0,0,0,8.876,8.876H68.905a8.886,8.886,0,0,0,8.876-8.876v-6.53H84.31a8.885,8.885,0,0,0,8.875-8.875V65.53A8.885,8.885,0,0,0,84.31,56.655ZM39.625,86.281a6.883,6.883,0,0,1-6.876-6.875V65.53a6.883,6.883,0,0,1,6.876-6.875h20.32a1,1,0,0,0,0-2H48.154V50.126A6.884,6.884,0,0,1,55.03,43.25H68.905a6.884,6.884,0,0,1,6.876,6.876V64.039a6.884,6.884,0,0,1-6.876,6.876H55.03a8.886,8.886,0,0,0-8.876,8.875v6.491Zm51.56-6.875a6.883,6.883,0,0,1-6.875,6.875H63.99a1,1,0,0,0,0,2H75.781v6.53a6.884,6.884,0,0,1-6.876,6.876H55.03a6.884,6.884,0,0,1-6.876-6.876V87.282h0V79.79a6.883,6.883,0,0,1,6.876-6.875H68.905a8.886,8.886,0,0,0,8.876-8.876V58.655H84.31a6.883,6.883,0,0,1,6.875,6.875Z" fill="#3a2c60"/><path d="M115.305,19.219H99.718a1,1,0,0,0,0,2h15.587a3,3,0,0,1,3,3V32H5.63V14.988a3,3,0,0,1,3-3H44.241a5.389,5.389,0,0,1,4.431,2.322l2.579,3.725a7.394,7.394,0,0,0,6.077,3.184h21.89a1,1,0,0,0,0-2H57.328A5.39,5.39,0,0,1,52.9,16.9l-2.579-3.726a7.392,7.392,0,0,0-6.076-3.183H8.63a5.006,5.006,0,0,0-5,5v93.7a5.006,5.006,0,0,0,5,5H115.305a5.007,5.007,0,0,0,5-5V24.219A5.006,5.006,0,0,0,115.305,19.219Zm0,92.468H8.63a3,3,0,0,1-3-3V34H118.305v74.687A3,3,0,0,1,115.305,111.687Z" fill="#3a2c60"/><path d="M83.718,21.219h10.5a1,1,0,0,0,0-2h-10.5a1,1,0,0,0,0,2Z" fill="#3a2c60"/><circle cx="40" cy="22" r="3" fill="#ffffff"/><circle cx="28" cy="22" r="3" fill="#f9f8f9"/><circle cx="16" cy="22" r="3" fill="#aa99ff"/></g><g transform="matrix(0.1171875 0 0 0.1171875 280 122)" id="L1_9"><path d="m283.07 416-84.14 30-3.19 11.15c-4.53 15.87-21.74 28.85-38.24 28.85h167z" fill="#cfd2fc"/><path d="m316.26 457.15-11.76-41.15-48.5-30-48.5 30-8.57 30h84.14l3.19 11.15c4.53 15.87 21.74 28.85 38.24 28.85h30c-16.5 0-33.71-12.98-38.24-28.85z" fill="#8f8f8b"/><path d="m444.5 416h30c16.5 0 30-13.5 30-30v-60l-60-60z" fill="#cfd2fc"/><path d="m7.5 386c0 16.5 13.5 30 30 30h407c16.5 0 30-13.5 30-30v-180l-467 120z" fill="#cfd2fc"/><path d="m474.5 26h-30l30 300h30v-270c0-16.5-13.5-30-30-30z" fill="#404242"/><path d="m474.5 56c0-16.5-13.5-30-30-30h-407c-16.5 0-30 13.5-30 30v270h467v-30l-218.5-120.013z" fill="#565959"/><path d="m474.5 55.995-29.994-.021c0 .005-188.506 120.013-188.506 120.013s188.502 120.011 188.5 120.013c0 0 29.999-.02 29.999-.02.001 0-.002-239.981.001-239.985z" fill="#9966ff"/><path d="m444.5 55.995-406.912-.022c-.025.012-.046 240.022-.088 240.027 0 0 406.98-.02 406.99-.02.005 0-.032-239.981.01-239.985z" fill="#8690fa"/><circle cx="256" cy="371" r="15" fill="#ffffff"/><path d="m474.5 18.5h-437c-20.678 0-37.5 16.822-37.5 37.5v330c0 20.678 16.822 37.5 37.5 37.5h160.057l-9.027 31.594c-3.625 12.688-17.835 23.406-31.03 23.406h-56.5c-4.142 0-7.5 3.357-7.5 7.5s3.358 7.5 7.5 7.5h310c4.142 0 7.5-3.357 7.5-7.5s-3.358-7.5-7.5-7.5h-56.5c-13.195 0-27.405-10.719-31.03-23.406l-9.027-31.594h160.057c20.678 0 37.5-16.822 37.5-37.5v-330c0-20.678-16.822-37.5-37.5-37.5zm-437 15h437c12.407 0 22.5 10.094 22.5 22.5v262.5h-482v-262.5c0-12.406 10.093-22.5 22.5-22.5zm271.547 425.715c2.058 7.205 6.149 13.824 11.512 19.285h-129.118c5.363-5.461 9.454-12.081 11.512-19.285l10.204-35.715h85.685zm165.453-50.715h-437c-12.407 0-22.5-10.094-22.5-22.5v-52.5h482v52.5c0 12.406-10.093 22.5-22.5 22.5z"/><path d="m37.5 303.5h437c4.142 0 7.5-3.357 7.5-7.5v-240c0-4.143-3.358-7.5-7.5-7.5h-437c-4.142 0-7.5 3.357-7.5 7.5v105c0 4.143 3.358 7.5 7.5 7.5s7.5-3.357 7.5-7.5v-97.5h422v225h-422v-97.5c0-4.143-3.358-7.5-7.5-7.5s-7.5 3.357-7.5 7.5v105c0 4.143 3.358 7.5 7.5 7.5z"/><path d="m256 348.5c-12.407 0-22.5 10.094-22.5 22.5s10.093 22.5 22.5 22.5 22.5-10.094 22.5-22.5-10.093-22.5-22.5-22.5zm0 30c-4.136 0-7.5-3.364-7.5-7.5s3.364-7.5 7.5-7.5 7.5 3.364 7.5 7.5-3.364 7.5-7.5 7.5z"/></g><g transform="matrix(0.1171875 0 0 0.1171875 33.99999958563842 168.99999917030334)" id="L1_10"><path d="m408 256v48h-96v-48a15.989 15.989 0 0 0 16-16v-16h64v16a15.979 15.979 0 0 0 16 16z" fill="#fdc8a2"/><path d="m393.27 246.24a76.106 76.106 0 0 1 -68.31 3.15 15.959 15.959 0 0 0 3.04-9.39v-16h64v16a15.851 15.851 0 0 0 1.27 6.24z" fill="#fdbf92"/><path d="m243.931 286.173-19.931 49.827h64v120h144v-120h56v-32a48 48 0 0 0 -48-48h-32l-8.974 11.965a50.087 50.087 0 0 1 -40.07 20.035 50.088 50.088 0 0 1 -44.8-27.688l-2.156-4.312h-23.5a48 48 0 0 0 -44.569 30.173z" fill="#9966ff"/><path d="m240 456h-64l48-120h64z" fill="#fdc8a2"/><path d="m440 128h16a0 0 0 0 1 0 0v48a0 0 0 0 1 0 0h-16a24 24 0 0 1 -24-24 24 24 0 0 1 24-24z" transform="matrix(-1 0 0 -1 872 304)" fill="#fdb683"/><path d="m280 128h16a0 0 0 0 1 0 0v48a0 0 0 0 1 0 0h-16a24 24 0 0 1 -24-24 24 24 0 0 1 24-24z" fill="#fdb683"/><path d="m328 64h56a48 48 0 0 1 48 48v52a76 76 0 0 1 -76 76 76 76 0 0 1 -76-76v-52a48 48 0 0 1 48-48z" fill="#fdc8a2"/><path d="m432 128-17.642-5.881a44.4 44.4 0 0 1 -30.358-42.119v-40a48 48 0 0 1 48 48z" fill="#3e3373"/><g fill="#844e3a"><path d="m384 40v40a190.267 190.267 0 0 1 -50.48 23.83 190.5 190.5 0 0 1 -55.21 8.17h-14.31v-24a64 64 0 0 1 64-64h30.11a28.939 28.939 0 0 1 25.89 16z"/><path d="m320 160a16 16 0 1 1 16-16 16.019 16.019 0 0 1 -16 16z"/><path d="m384 160a16 16 0 1 1 16-16 16.019 16.019 0 0 1 -16 16z"/></g><path d="m352 192.021a51.957 51.957 0 0 1 -28.363-8.408l8.726-13.411a36.026 36.026 0 0 0 39.274 0l8.726 13.411a51.957 51.957 0 0 1 -28.363 8.408z" fill="#fcb079"/><path d="m24 456h464v32h-464z" fill="#3e3373"/><rect x="24px" y="200px" width="272px" height="192px" fill="#d5d5d3"/><path d="m160 392h32l-8-48h-24z" fill="#cececc"/><path d="m112 424h96v32h-96z" fill="#d5d5d3"/><path d="m160 456h-80l48-112h56z" fill="#dfdfdd"/><path d="m240 424h96v32h-96z" fill="#d5d5d3"/><path d="m432 336v64h-104a32 32 0 0 0 -32 32v16a8 8 0 0 0 8 8h128a56 56 0 0 0 56-56v-64z" fill="#fdc8a2"/><path d="m440 248h-32a7.981 7.981 0 0 1 -8-8v-4.484a84.269 84.269 0 0 0 37.693-52.028 32 32 0 0 0 2.307-62.475v-33.013a56.065 56.065 0 0 0 -51.315-55.789 36.7 36.7 0 0 0 -30.574-16.211h-30.111a72.081 72.081 0 0 0 -72 72v24a8 8 0 0 0 8 8h8v1.009a32 32 0 0 0 2.274 62.468q.312 1.317.666 2.623l15.439-4.2a68.174 68.174 0 0 1 -2.379-17.9v-44.242a197.684 197.684 0 0 0 89.72-26.443 52.317 52.317 0 0 0 34.108 36.393l12.172 4.058v30.234a68.006 68.006 0 0 1 -107.363 55.454l-9.274 13.038a84.192 84.192 0 0 0 12.637 7.413v.095a8.009 8.009 0 0 1 -8 8h-8v-24a32.036 32.036 0 0 0 -32-32h-224a32.036 32.036 0 0 0 -32 32v24h16v-24a16.019 16.019 0 0 1 16-16h224a16.019 16.019 0 0 1 16 16v144a16.019 16.019 0 0 1 -16 16h-88.39l8.212-38.324a8 8 0 0 0 -7.822-9.676h-56a8 8 0 0 0 -7.353 4.849l-18.493 43.151h-54.154a16.019 16.019 0 0 1 -16-16v-104h-16v104a32.036 32.036 0 0 0 32 32h47.3l-20.575 48h-50.725a8 8 0 0 0 -8 8v32a8 8 0 0 0 8 8h464a8 8 0 0 0 8-8v-32a8 8 0 0 0 -8-8h-13.736a63.85 63.85 0 0 0 21.736-48v-8h-16v8a48.055 48.055 0 0 1 -48 48h-128v-16a24.028 24.028 0 0 1 24-24h104a8 8 0 0 0 8-8v-56h40v32h16v-72a56.064 56.064 0 0 0 -56-56zm0-84v-25.835a15.978 15.978 0 0 1 3.32 25.142 16.2 16.2 0 0 1 -3.367 2.561c.013-.623.047-1.242.047-1.868zm-176-12a15.923 15.923 0 0 1 4.68-11.307 16.159 16.159 0 0 1 3.32-2.532v25.839c0 .619.017 1.236.031 1.854a16 16 0 0 1 -8.031-13.854zm112-76.34a181.933 181.933 0 0 1 -97.689 28.34h-6.311v-8.911c68.483-8.969 92.63-32.406 93.657-33.432l-11.263-11.364c-.058.056-5.877 5.589-19.922 11.985-11.815 5.381-31.772 12.374-61.711 16.562a55.568 55.568 0 0 1 4.69-14.92c29.93-.845 45.445-8.424 46.127-8.765l-7.112-14.332c-.114.056-9.07 4.292-26.61 6.229a55.784 55.784 0 0 1 38.144-15.052h30.111a20.816 20.816 0 0 1 17.889 10.048zm40.888 38.87a36.351 36.351 0 0 1 -24.888-34.53v-31.2a40.071 40.071 0 0 1 32 39.2v28.9zm-81.517 130.909a84.069 84.069 0 0 0 48.835-2.325 23.888 23.888 0 0 0 6.827 13.872 24.215 24.215 0 0 0 3.875 3.137l-2.28 3.039a42.031 42.031 0 0 1 -68.885-2.243 24.079 24.079 0 0 0 11.628-15.48zm-47.371 186.561v16h-40v-16zm-16.984-32h.984a31.94 31.94 0 0 0 8-1.013v17.013h-15.384zm-64 0h46.768l-6.4 16h-7.384a8 8 0 0 0 -8 8v24h-16v-24a8 8 0 0 0 -8-8h-7.384zm-26.835 0h9.6l-6.4 16h-6.631zm19.819 32v16h-30.1l3.428-16zm-66.725-80h40.825l-20.571 96h-61.4zm346.725 112v16h-448v-16zm0-136h-40v-24h-16v88h-96a39.964 39.964 0 0 0 -32 16.028v-18.9a31.86 31.86 0 0 0 8-21.128v-104h3.061a58.083 58.083 0 0 0 98.369 8.76l6.57-8.76h28a40.045 40.045 0 0 1 40 40zm-88.617-23.2 6.975 14.4a88 88 0 0 1 -82.358-2.99l8-13.856a72 72 0 0 0 67.384 2.446zm-55.383-160.8a16 16 0 1 1 -16-16 16.019 16.019 0 0 1 16 16zm32 0a16 16 0 1 1 16 16 16.019 16.019 0 0 1 -16-16zm3.637 26.2 8.726 13.411a52.043 52.043 0 0 1 -56.726 0l8.726-13.411a36.026 36.026 0 0 0 39.274 0zm-243.637 77.8h-32v-16h32zm48-16v16h-32v-16zm48 0v16h-32v-16zm48 16h-32v-16h32zm-192-16v16h-32v-16z"/></g><g transform="matrix(0.11695906519889832 0 0 0.11695906519889832 159 104.00000025699012)" id="L1_11"><g><path d="m315.44 326.194h-117.95v103.54l7.03 20.865h101.832l9.158-20.865z" fill="#a79ba7"/><g><g id="XMLID_248_"><path d="m255.924 395.244h59.563l-.047-69.05h-79.557-38.393v69.05 34.49l7.03 20.865h38.393l-7.03-20.865v-14.449c0-11.068 8.972-20.041 20.041-20.041z" fill="#918291"/><path d="m482.16 41.544h-451.32c-12.89 0-23.34 10.45-23.34 23.33v269.655c-.1.177-.107.275 0 .275 2.03 0 47.858 22.72 47.858 22.72h432.062l18.08-22.72v-269.93c0-12.88-10.45-23.33-23.34-23.33z" fill="#cfd2fc"/><path d="m77.543 334.594v-292.03c0-.342.011-.681.026-1.02h-46.729c-12.89 0-23.34 10.45-23.34 23.33v269.655c-.1.177-.107.275 0 .275 2.03 0 47.858 22.72 47.858 22.72h41.181c-10.814-2.037-18.996-11.526-18.996-22.93z" fill="#cfd2fc"/><path d="m505.5 334.804v22.1c0 12.89-10.45 23.34-23.34 23.34h-451.32c-12.89 0-23.34-10.45-23.34-23.34v-22.1h2.03z" fill="#b5adb6"/></g><path d="m100.883 357.934c-12.82 0-23.221-10.337-23.335-23.13h-68.018-2.03v22.1c0 12.89 10.45 23.34 23.34 23.34h451.32c12.545 0 22.774-9.898 23.314-22.31z" fill="#a79ba7"/><path d="m361.22 461.504c4.4 3.06 2.24 9.96-3.11 9.96h-203.22c-5.35 0-7.51-6.9-3.11-9.96l45.71-31.77h84.44 33.58z" fill="#b5adb6" id="XMLID_250_"/><path d="m190.275 461.504 45.71-31.77h-38.495l-45.71 31.77c-4.4 3.06-2.24 9.96 3.11 9.96h38.495c-5.35 0-7.51-6.9-3.11-9.96z" fill="#a79ba7"/><g id="XMLID_249_"><path d="m166.45 140.004v-.01c-10.83-5.79-23.21-9.07-36.36-9.07-42.68 0-77.29 34.6-77.29 77.29 0 15.65 4.65 30.21 12.66 42.38l44.165 4.956 66.907-54.31z" fill="#574d8c"/><path d="m52.8 208.214c0 15.65 4.65 30.21 12.66 42.38l12.083 1.356v-100.395c-15.212 14.115-24.743 34.269-24.743 56.659z" fill="#9966ff"/><path d="m207.38 208.214c0 10.24-1.99 20.01-5.61 28.95l-71.68-28.95 36.36-68.21c24.36 12.99 40.93 38.66 40.93 68.21z" fill="#8690fa"/><path d="m130.09 208.214 71.68 28.95c-11.45 28.34-39.23 48.34-71.68 48.34-27.03 0-50.83-13.88-64.63-34.91z" fill="#ffde55"/></g><g fill="#99e6fc"><path d="m454.832 139.99h-182.725c-3.713 0-6.724-3.01-6.724-6.724v-24.741c0-3.713 3.01-6.724 6.724-6.724h182.726c3.713 0 6.724 3.01 6.724 6.724v24.741c-.001 3.714-3.011 6.724-6.725 6.724z"/><path d="m380.979 214.386h-108.872c-3.713 0-6.724-3.01-6.724-6.724v-24.741c0-3.713 3.01-6.724 6.724-6.724h108.873c3.713 0 6.724 3.01 6.724 6.724v24.741c-.001 3.714-3.011 6.724-6.725 6.724z"/><path d="m334.476 288.781h-62.37c-3.713 0-6.724-3.01-6.724-6.724v-24.741c0-3.713 3.01-6.724 6.724-6.724h62.37c3.713 0 6.724 3.01 6.724 6.724v24.741c0 3.714-3.011 6.724-6.724 6.724z"/></g></g></g><g><path d="m482.162 34.04h-451.324c-17.004 0-30.838 13.834-30.838 30.838v292.025c0 17.004 13.834 30.838 30.838 30.838h159.15v38.075l-42.493 29.531c-4.678 3.251-6.677 9.088-4.973 14.524s6.676 9.088 12.373 9.088h203.211c5.697 0 10.669-3.652 12.373-9.088s-.295-11.273-4.973-14.524l-42.493-29.531v-38.075h159.15c17.004 0 30.838-13.834 30.838-30.838v-292.025c-.001-17.004-13.835-30.838-30.839-30.838zm-451.324 15h451.324c8.733 0 15.838 7.105 15.838 15.838v262.429h-483v-262.429c0-8.733 7.105-15.838 15.838-15.838zm451.324 323.701h-192.685c-4.142 0-7.5 3.358-7.5 7.5s3.358 7.5 7.5 7.5h18.535v41.996c0 2.457 1.203 4.757 3.22 6.159l40.382 28.064h-190.227l38.452-26.723h82.091c4.142 0 7.5-3.358 7.5-7.5s-3.358-7.5-7.5-7.5h-76.941v-34.496h52.526c4.142 0 7.5-3.358 7.5-7.5s-3.358-7.5-7.5-7.5h-226.677c-8.733 0-15.838-7.105-15.838-15.838v-14.597h483v14.597c0 8.733-7.105 15.838-15.838 15.838z"/><path d="m130.094 293c46.753 0 84.79-38.037 84.79-84.79s-38.037-84.79-84.79-84.79c-18.629 0-36.315 5.937-51.144 17.168-3.302 2.5-3.951 7.205-1.45 10.507 2.5 3.301 7.205 3.952 10.507 1.45 12.201-9.241 26.754-14.125 42.087-14.125 9.189 0 17.96 1.802 26.002 5.044l-31.719 59.526-56.396 36.98c-4.895-9.534-7.677-20.325-7.677-31.759 0-11.82 3.02-23.508 8.732-33.803 2.01-3.622.703-8.188-2.919-10.197s-8.188-.702-10.197 2.919c-6.945 12.516-10.616 26.721-10.616 41.081 0 46.753 38.036 84.789 84.79 84.789zm69.789-84.789c0 6.596-.94 12.974-2.658 19.027l-56.591-22.859 28.695-53.851c18.429 12.576 30.554 33.738 30.554 57.683zm-68.959 8.424 60.68 24.51c-11.783 21.917-34.932 36.855-61.51 36.855-21.677 0-41.075-9.935-53.885-25.489z"/><path d="m272.106 147.49h182.726c7.843 0 14.224-6.381 14.224-14.224v-24.741c0-7.843-6.381-14.224-14.224-14.224h-23.732c-4.142 0-7.5 3.358-7.5 7.5s3.358 7.5 7.5 7.5h22.956v23.188h-181.173v-23.188h126.255c4.142 0 7.5-3.358 7.5-7.5s-3.358-7.5-7.5-7.5h-127.032c-7.843 0-14.224 6.381-14.224 14.224v24.741c.001 7.844 6.382 14.224 14.224 14.224z"/><path d="m272.106 221.886h108.873c7.843 0 14.224-6.381 14.224-14.224v-24.741c0-7.843-6.381-14.224-14.224-14.224h-108.873c-7.843 0-14.224 6.381-14.224 14.224v24.741c.001 7.843 6.382 14.224 14.224 14.224zm.777-38.188h107.32v23.188h-107.32z"/><path d="m272.106 296.281h62.37c7.843 0 14.224-6.381 14.224-14.224v-24.741c0-7.843-6.381-14.224-14.224-14.224h-62.37c-7.843 0-14.224 6.381-14.224 14.224v24.741c.001 7.843 6.382 14.224 14.224 14.224zm.777-38.188h60.817v23.188h-60.817z"/></g></g></defs><g fi:class="KUsePattern" opacity="0.5"><pattern id="pattern_L1_0" width="350" height="350" patternUnits="userSpaceOnUse"><use xlink:href="#L1_0" x="-350" y="-350"/><use xlink:href="#L1_0" x="0" y="-350"/><use xlink:href="#L1_0" x="350" y="-350"/><use xlink:href="#L1_0" x="-350" y="0"/><use xlink:href="#L1_0" x="0" y="0"/><use xlink:href="#L1_0" x="350" y="0"/><use xlink:href="#L1_0" x="-350" y="350"/><use xlink:href="#L1_0" x="0" y="350"/><use xlink:href="#L1_0" x="350" y="350"/></pattern><rect x="0" y="0" width="100%" height="100%" fill="url(#pattern_L1_0)"/></g><g fi:class="KUsePattern" opacity="0.5"><pattern id="pattern_L1_1" width="350" height="350" patternUnits="userSpaceOnUse"><use xlink:href="#L1_1" x="-350" y="-350"/><use xlink:href="#L1_1" x="0" y="-350"/><use xlink:href="#L1_1" x="350" y="-350"/><use xlink:href="#L1_1" x="-350" y="0"/><use xlink:href="#L1_1" x="0" y="0"/><use xlink:href="#L1_1" x="350" y="0"/><use xlink:href="#L1_1" x="-350" y="350"/><use xlink:href="#L1_1" x="0" y="350"/><use xlink:href="#L1_1" x="350" y="350"/></pattern><rect x="0" y="0" width="100%" height="100%" fill="url(#pattern_L1_1)"/></g><g fi:class="KUsePattern" opacity="0.5"><pattern id="pattern_L1_2" width="350" height="350" patternUnits="userSpaceOnUse"><use xlink:href="#L1_2" x="-350" y="-350"/><use xlink:href="#L1_2" x="0" y="-350"/><use xlink:href="#L1_2" x="350" y="-350"/><use xlink:href="#L1_2" x="-350" y="0"/><use xlink:href="#L1_2" x="0" y="0"/><use xlink:href="#L1_2" x="350" y="0"/><use xlink:href="#L1_2" x="-350" y="350"/><use xlink:href="#L1_2" x="0" y="350"/><use xlink:href="#L1_2" x="350" y="350"/></pattern><rect x="0" y="0" width="100%" height="100%" fill="url(#pattern_L1_2)"/></g><g fi:class="KUsePattern" opacity="0.5"><pattern id="pattern_L1_3" width="350" height="350" patternUnits="userSpaceOnUse"><use xlink:href="#L1_3" x="-350" y="-350"/><use xlink:href="#L1_3" x="0" y="-350"/><use xlink:href="#L1_3" x="350" y="-350"/><use xlink:href="#L1_3" x="-350" y="0"/><use xlink:href="#L1_3" x="0" y="0"/><use xlink:href="#L1_3" x="350" y="0"/><use xlink:href="#L1_3" x="-350" y="350"/><use xlink:href="#L1_3" x="0" y="350"/><use xlink:href="#L1_3" x="350" y="350"/></pattern><rect x="0" y="0" width="100%" height="100%" fill="url(#pattern_L1_3)"/></g><g fi:class="KUsePattern" opacity="0.5"><pattern id="pattern_L1_4" width="350" height="350" patternUnits="userSpaceOnUse"><use xlink:href="#L1_4" x="-350" y="-350"/><use xlink:href="#L1_4" x="0" y="-350"/><use xlink:href="#L1_4" x="350" y="-350"/><use xlink:href="#L1_4" x="-350" y="0"/><use xlink:href="#L1_4" x="0" y="0"/><use xlink:href="#L1_4" x="350" y="0"/><use xlink:href="#L1_4" x="-350" y="350"/><use xlink:href="#L1_4" x="0" y="350"/><use xlink:href="#L1_4" x="350" y="350"/></pattern><rect x="0" y="0" width="100%" height="100%" fill="url(#pattern_L1_4)"/></g><g fi:class="KUsePattern" opacity="0.5"><pattern id="pattern_L1_5" width="350" height="350" patternUnits="userSpaceOnUse"><use xlink:href="#L1_5" x="-350" y="-350"/><use xlink:href="#L1_5" x="0" y="-350"/><use xlink:href="#L1_5" x="350" y="-350"/><use xlink:href="#L1_5" x="-350" y="0"/><use xlink:href="#L1_5" x="0" y="0"/><use xlink:href="#L1_5" x="350" y="0"/><use xlink:href="#L1_5" x="-350" y="350"/><use xlink:href="#L1_5" x="0" y="350"/><use xlink:href="#L1_5" x="350" y="350"/></pattern><rect x="0" y="0" width="100%" height="100%" fill="url(#pattern_L1_5)"/></g><g fi:class="KUsePattern" opacity="0.5"><pattern id="pattern_L1_6" width="350" height="350" patternUnits="userSpaceOnUse"><use xlink:href="#L1_6" x="-350" y="-350"/><use xlink:href="#L1_6" x="0" y="-350"/><use xlink:href="#L1_6" x="350" y="-350"/><use xlink:href="#L1_6" x="-350" y="0"/><use xlink:href="#L1_6" x="0" y="0"/><use xlink:href="#L1_6" x="350" y="0"/><use xlink:href="#L1_6" x="-350" y="350"/><use xlink:href="#L1_6" x="0" y="350"/><use xlink:href="#L1_6" x="350" y="350"/></pattern><rect x="0" y="0" width="100%" height="100%" fill="url(#pattern_L1_6)"/></g><g fi:class="KUsePattern" opacity="0.5"><pattern id="pattern_L1_7" width="350" height="350" patternUnits="userSpaceOnUse"><use xlink:href="#L1_7" x="-350" y="-350"/><use xlink:href="#L1_7" x="0" y="-350"/><use xlink:href="#L1_7" x="350" y="-350"/><use xlink:href="#L1_7" x="-350" y="0"/><use xlink:href="#L1_7" x="0" y="0"/><use xlink:href="#L1_7" x="350" y="0"/><use xlink:href="#L1_7" x="-350" y="350"/><use xlink:href="#L1_7" x="0" y="350"/><use xlink:href="#L1_7" x="350" y="350"/></pattern><rect x="0" y="0" width="100%" height="100%" fill="url(#pattern_L1_7)"/></g><g fi:class="KUsePattern" opacity="0.5"><pattern id="pattern_L1_8" width="350" height="350" patternUnits="userSpaceOnUse"><use xlink:href="#L1_8" x="-350" y="-350"/><use xlink:href="#L1_8" x="0" y="-350"/><use xlink:href="#L1_8" x="350" y="-350"/><use xlink:href="#L1_8" x="-350" y="0"/><use xlink:href="#L1_8" x="0" y="0"/><use xlink:href="#L1_8" x="350" y="0"/><use xlink:href="#L1_8" x="-350" y="350"/><use xlink:href="#L1_8" x="0" y="350"/><use xlink:href="#L1_8" x="350" y="350"/></pattern><rect x="0" y="0" width="100%" height="100%" fill="url(#pattern_L1_8)"/></g><g fi:class="KUsePattern" opacity="0.5"><pattern id="pattern_L1_9" width="350" height="350" patternUnits="userSpaceOnUse"><use xlink:href="#L1_9" x="-350" y="-350"/><use xlink:href="#L1_9" x="0" y="-350"/><use xlink:href="#L1_9" x="350" y="-350"/><use xlink:href="#L1_9" x="-350" y="0"/><use xlink:href="#L1_9" x="0" y="0"/><use xlink:href="#L1_9" x="350" y="0"/><use xlink:href="#L1_9" x="-350" y="350"/><use xlink:href="#L1_9" x="0" y="350"/><use xlink:href="#L1_9" x="350" y="350"/></pattern><rect x="0" y="0" width="100%" height="100%" fill="url(#pattern_L1_9)"/></g><g fi:class="KUsePattern" opacity="0.5"><pattern id="pattern_L1_10" width="350" height="350" patternUnits="userSpaceOnUse"><use xlink:href="#L1_10" x="-350" y="-350"/><use xlink:href="#L1_10" x="0" y="-350"/><use xlink:href="#L1_10" x="350" y="-350"/><use xlink:href="#L1_10" x="-350" y="0"/><use xlink:href="#L1_10" x="0" y="0"/><use xlink:href="#L1_10" x="350" y="0"/><use xlink:href="#L1_10" x="-350" y="350"/><use xlink:href="#L1_10" x="0" y="350"/><use xlink:href="#L1_10" x="350" y="350"/></pattern><rect x="0" y="0" width="100%" height="100%" fill="url(#pattern_L1_10)"/></g><g fi:class="KUsePattern" opacity="0.5"><pattern id="pattern_L1_11" width="350" height="350" patternUnits="userSpaceOnUse"><use xlink:href="#L1_11" x="-350" y="-350"/><use xlink:href="#L1_11" x="0" y="-350"/><use xlink:href="#L1_11" x="350" y="-350"/><use xlink:href="#L1_11" x="-350" y="0"/><use xlink:href="#L1_11" x="0" y="0"/><use xlink:href="#L1_11" x="350" y="0"/><use xlink:href="#L1_11" x="-350" y="350"/><use xlink:href="#L1_11" x="0" y="350"/><use xlink:href="#L1_11" x="350" y="350"/></pattern><rect x="0" y="0" width="100%" height="100%" fill="url(#pattern_L1_11)"/></g></svg>